<svg xmlns="http://www.w3.org/2000/svg" width="275" height="77" viewBox="0 0 275 77">
  <path fill="#FFF" fill-rule="evenodd" d="M274.3368,32.2117694 C271.754578,31.6225884 269.942348,29.9918564 269.126982,27.9527539 L260.609639,6.16130698 C259.929709,4.43982599 259.794273,2.76371949 260.292705,1.67679399 C260.51889,1.17698701 260.428828,0.996863995 259.929709,0.996863995 L251.86611,0.996863995 C251.367678,0.996863995 251.276929,1.13298749 251.276929,1.267736 C251.276929,1.3591725 251.322304,1.44992149 251.729987,1.63141949 C253.181283,2.2646 254.266834,3.75989599 255.354447,6.38749199 L245.795552,27.9073794 C244.88875,29.9918564 243.213331,31.6225884 240.630422,32.2117694 C240.222051,32.3025184 240.222051,32.7102014 240.630422,32.7102014 L250.235378,32.7102014 C250.688436,32.7102014 250.823872,32.3025184 250.145317,32.2117694 C247.426284,31.8494609 246.88179,30.1719794 247.788593,28.0895649 L249.19314,24.9181624 L262.557992,24.9181624 L263.781041,28.0895649 C264.596407,30.2187289 264.097975,31.5779014 261.017322,32.2117694 C260.564264,32.3025184 260.564264,32.7102014 261.017322,32.7102014 L274.3368,32.7102014 C274.744483,32.7102014 274.744483,32.3025184 274.3368,32.2117694 L274.3368,32.2117694 Z M262.014186,23.5136154 L249.781633,23.5136154 L256.259874,8.69815398 L262.014186,23.5136154 Z M237.056836,0.996176503 L227.951687,0.996176503 C227.544004,0.996176503 227.544004,1.4038595 227.951687,1.4946085 C230.533221,2.08447699 231.576147,3.75989599 231.576147,6.02587098 L231.576147,27.0466389 L212.956102,1.3591725 C212.774604,1.13298749 212.502357,0.996176503 212.23011,0.996176503 L205.071252,0.996176503 C204.845754,0.996176503 204.845754,1.4038595 205.071252,1.4946085 C206.567235,2.08447699 208.061844,3.35221299 209.330955,4.98363248 L209.330955,27.6805069 C209.330955,29.9471694 208.288716,31.6225884 205.706495,32.2117694 C205.298812,32.3025184 205.298812,32.7102014 205.706495,32.7102014 L214.812332,32.7102014 C215.220015,32.7102014 215.220015,32.3025184 214.812332,32.2117694 C212.23011,31.6225884 211.188559,29.9471694 211.188559,27.6805069 L211.188559,7.52116697 L229.264797,32.3472054 C229.446295,32.5733904 229.717855,32.7102014 229.989414,32.7102014 L236.9214,32.7102014 C237.19296,32.7102014 237.19296,32.3025184 236.9214,32.2117694 C235.743726,31.8494609 234.520677,30.8079099 233.433064,29.5381114 L233.433064,6.02587098 C233.433064,3.75989599 234.475302,2.08447699 237.056836,1.4946085 C237.465207,1.4038595 237.465207,0.996176503 237.056836,0.996176503 L237.056836,0.996176503 Z M193.65544,27.6805069 L193.65544,6.02587098 C193.65544,3.76058349 194.696991,2.08447699 197.279213,1.4946085 C197.687583,1.4038595 197.687583,0.996863995 197.279213,0.996863995 L185.001286,0.996863995 C184.593603,0.996863995 184.593603,1.4038595 185.001286,1.4946085 C187.583507,2.08447699 188.625746,3.76058349 188.625746,6.02587098 L188.625746,27.6805069 C188.625746,29.9471694 187.583507,31.6225884 185.001286,32.2117694 C184.593603,32.3025184 184.593603,32.7102014 185.001286,32.7102014 L197.279213,32.7102014 C197.687583,32.7102014 197.687583,32.3025184 197.279213,32.2117694 C194.696991,31.6225884 193.65544,29.9471694 193.65544,27.6805069 L193.65544,27.6805069 Z M184.522791,76.4972805 C181.94057,75.9080995 180.129715,74.2773675 179.312974,72.238265 L170.796318,50.4468181 C170.116388,48.7260246 169.980952,47.0492306 170.479384,45.9616176 C170.706256,45.4624981 170.61482,45.2823751 170.116388,45.2823751 L162.052102,45.2823751 C161.55367,45.2823751 161.463608,45.4184986 161.463608,45.5532471 C161.463608,45.6446836 161.508295,45.7347451 161.916666,45.9169306 C163.3659,46.5501111 164.453513,48.0454071 165.541126,50.6730031 L155.981544,72.1928905 C155.075429,74.2773675 153.398635,75.9080995 150.816413,76.4972805 C150.40873,76.587342 150.40873,76.9957125 150.816413,76.9957125 L160.422057,76.9957125 C160.874427,76.9957125 161.010551,76.587342 160.330621,76.4972805 C157.612963,76.134972 157.069157,74.4574905 157.974584,72.3743885 L159.379819,69.2036735 L172.744671,69.2036735 L173.96772,72.3743885 C174.783086,74.50424 174.284654,75.862725 171.204001,76.4972805 C170.750943,76.587342 170.750943,76.9957125 171.204001,76.9957125 L184.522791,76.9957125 C184.931162,76.9957125 184.931162,76.587342 184.522791,76.4972805 L184.522791,76.4972805 Z M172.200865,67.798439 L159.968312,67.798439 L166.446553,52.9836651 L172.200865,67.798439 Z M179.698657,26.1858984 C179.879467,26.0050879 179.83478,25.6881539 179.608595,25.5073434 L176.526567,22.7889984 C176.345756,22.6068129 176.164946,22.6528749 176.074197,22.8790599 C174.171905,28.2243134 170.593507,31.5779014 166.424553,31.5779014 C159.221695,31.5779014 154.237375,23.9206109 154.237375,15.6308274 C154.237375,8.83496497 157.544901,2.40141099 163.977768,2.40141099 C167.285294,2.40141099 170.682881,4.30370249 173.628099,8.47334396 C173.809597,8.69815398 174.035782,8.74352848 174.261967,8.56271797 L178.02255,5.75431148 C178.249423,5.57281348 178.29411,5.30056648 178.113299,5.11906849 C175.077333,1.63141949 170.999815,0 166.651426,0 C157.90721,0 148.665249,6.66042647 148.665249,17.5324315 C148.665249,27.5904454 156.32254,33.3901314 164.703072,33.3901314 C169.958264,33.3901314 175.485016,31.0794694 179.698657,26.1858984 L179.698657,26.1858984 Z M141.029959,71.966018 L141.029959,50.3100071 C141.029959,48.0454071 142.072197,46.3693006 144.653731,45.7801196 C145.062102,45.6893706 145.062102,45.2823751 144.653731,45.2823751 L132.377179,45.2823751 C131.969496,45.2823751 131.969496,45.6893706 132.377179,45.7801196 C134.958713,46.3693006 136.000952,48.0454071 136.000952,50.3100071 L136.000952,71.966018 C136.000952,74.231993 134.958713,75.9080995 132.377179,76.4972805 C131.969496,76.587342 131.969496,76.9957125 132.377179,76.9957125 L144.653731,76.9957125 C145.062102,76.9957125 145.062102,76.587342 144.653731,76.4972805 C142.072197,75.9080995 141.029959,74.231993 141.029959,71.966018 L141.029959,71.966018 Z M144.471546,0.996863995 L134.958026,0.996863995 C134.550343,0.996863995 134.550343,1.4038595 134.958026,1.4946085 C137.540247,2.08447699 138.582486,3.75989599 138.582486,6.02587098 L138.582486,20.0239039 C138.582486,27.6358199 134.595717,31.4864649 128.887468,31.4864649 C124.084646,31.4864649 119.464009,28.4064989 119.464009,21.8361339 L119.464009,6.02587098 C119.464009,3.75989599 120.50556,2.08447699 123.088469,1.4946085 C123.495465,1.4038595 123.495465,0.996863995 123.088469,0.996863995 L110.809855,0.996863995 C110.402859,0.996863995 110.402859,1.4038595 110.809855,1.4946085 C113.392764,2.08447699 114.435002,3.75989599 114.435002,6.02587098 L114.435002,21.3837639 C114.435002,29.1311159 119.37326,33.3901314 128.388348,33.3901314 C135.728017,33.3901314 140.847086,28.9035559 140.847086,19.7083449 L140.847086,6.02587098 C140.847086,3.75989599 141.889324,2.08447699 144.471546,1.4946085 C144.879916,1.4038595 144.879916,0.996863995 144.471546,0.996863995 L144.471546,0.996863995 Z M106.23253,26.1858984 C106.413341,26.0050879 106.367966,25.6881539 106.141781,25.5073434 L103.061815,22.7889984 C102.880317,22.6068129 102.698132,22.6528749 102.607383,22.8790599 C100.705779,28.2243134 97.1266934,31.5779014 92.9584269,31.5779014 C85.7541939,31.5779014 80.7719364,23.9206109 80.7719364,15.6308274 C80.7719364,8.83496497 84.0787749,2.40141099 90.5116414,2.40141099 C93.8184799,2.40141099 97.2167549,4.30370249 100.161972,8.47334396 C100.34347,8.69815398 100.568968,8.74352848 100.79584,8.56271797 L104.555736,5.75431148 C104.782609,5.57281348 104.827983,5.30056648 104.646485,5.11906849 C101.611894,1.63141949 97.5336889,0 93.1846119,0 C84.4403959,0 75.199123,6.66042647 75.199123,17.5324315 C75.199123,27.5904454 82.8557259,33.3901314 91.2369459,33.3901314 C96.4914504,33.3901314 102.018889,31.0794694 106.23253,26.1858984 L106.23253,26.1858984 Z M82.1159841,45.2823751 L74.0516981,45.2823751 C73.5532661,45.2823751 73.4625171,45.4184986 73.4625171,45.5532471 C73.4625171,45.6446836 73.5078916,45.7347451 73.9162621,45.9169306 C75.3654961,46.5501111 76.4531091,48.0454071 77.5407221,50.6730031 L67.9804527,72.1928905 C67.0750252,74.2773675 65.3989187,75.9080995 62.8160097,76.4972805 C62.4083267,76.587342 62.4083267,76.9957125 62.8160097,76.9957125 L72.4209661,76.9957125 C72.8740236,76.9957125 73.0094596,76.587342 72.3302171,76.4972805 C69.6125596,76.134972 69.0680656,74.4574905 69.9741806,72.3743885 L71.3787276,69.2036735 L84.7435801,69.2036735 L85.9673166,72.3743885 C86.7819951,74.50424 86.2842506,75.862725 83.2029096,76.4972805 C82.7505396,76.587342 82.7505396,76.9957125 83.2029096,76.9957125 L96.5230751,76.9957125 C96.9300706,76.9957125 96.9300706,76.587342 96.5230751,76.4972805 C93.9401661,75.9080995 92.1279361,74.2773675 91.3125701,72.238265 L82.7959141,50.4468181 C82.1159841,48.7260246 81.9798606,47.0492306 82.4782926,45.9616176 C82.7051651,45.4624981 82.6144161,45.2823751 82.1159841,45.2823751 L82.1159841,45.2823751 Z M78.4468371,52.9836651 L84.1997736,67.798439 L71.9679086,67.798439 L78.4468371,52.9836651 Z M61.8301456,51.7159291 L61.4224626,45.7801196 C61.3770881,45.3724366 61.2409646,45.2823751 60.9694051,45.2823751 L36.0979921,45.2823751 C35.8257451,45.2823751 35.6442471,45.4631856 35.6442471,45.7347451 L35.2365641,51.7159291 C35.1911896,52.1682991 35.2819386,52.4405461 35.5088111,52.4405461 C35.6896216,52.4405461 35.7803706,52.2583606 35.9158066,51.9414266 C37.3210411,48.5892136 39.9479496,46.8223581 45.1584546,46.8223581 L46.0191951,46.8223581 L46.0191951,71.966018 C46.0191951,74.231993 44.9769566,75.9080995 42.3947351,76.4972805 C41.9870521,76.587342 41.9870521,76.9964 42.3947351,76.9964 L54.6726621,76.9964 C55.0803451,76.9964 55.0803451,76.587342 54.6726621,76.4972805 C52.0897531,75.9080995 51.0475146,74.231993 51.0475146,71.966018 L51.0475146,46.8223581 L51.9089426,46.8223581 C57.1187601,46.8223581 59.7463561,48.5892136 61.1502156,51.9414266 C61.2870265,52.2583606 61.3770881,52.4405461 61.5585861,52.4405461 C61.7847711,52.4405461 61.8755201,52.1682991 61.8301456,51.7159291 L61.8301456,51.7159291 Z M60.8346565,32.2117694 C58.2517476,31.6225884 56.4395176,29.9918564 55.6241516,27.9527539 L47.1074956,6.16130698 C46.4275656,4.43982599 46.2914421,2.76371949 46.7898741,1.67679399 C47.0160591,1.17698701 46.9259976,0.996863995 46.4275656,0.996863995 L38.3632796,0.996863995 C37.8648476,0.996863995 37.7747861,1.13298749 37.7747861,1.267736 C37.7747861,1.3591725 37.8194731,1.44992149 38.2278436,1.63141949 C39.6770776,2.2646 40.7646906,3.75989599 41.8523036,6.38749199 L32.2920341,27.9073794 C31.3866066,29.9918564 29.7105001,31.6225884 27.1275912,32.2117694 C26.7199082,32.3025184 26.7199082,32.7102014 27.1275912,32.7102014 L36.7325476,32.7102014 C37.1856051,32.7102014 37.3210411,32.3025184 36.6417986,32.2117694 C33.9241411,31.8494609 33.3796471,30.1719794 34.2857621,28.0895649 L35.6903091,24.9181624 L49.0551616,24.9181624 L50.2788981,28.0895649 C51.0935766,30.2187289 50.5958321,31.5779014 47.5144911,32.2117694 C47.0621211,32.3025184 47.0621211,32.7102014 47.5144911,32.7102014 L60.8346565,32.7102014 C61.241652,32.7102014 61.241652,32.3025184 60.8346565,32.2117694 L60.8346565,32.2117694 Z M48.5113551,23.5136154 L36.2788026,23.5136154 L42.7584186,8.69815398 L48.5113551,23.5136154 Z M22.0972092,32.2117694 L23.0940732,25.3244704 C23.1848222,24.7359769 22.6410157,24.6459154 22.4141432,25.2804709 C21.0102837,29.2211774 18.3373132,30.7618479 15.1659107,30.8979714 L8.95922922,31.1241564 L8.95922922,6.02587098 C8.95922922,3.75989599 10.0007802,2.08447699 12.5836892,1.4946085 C12.9913722,1.4038595 12.9913722,0.996863995 12.5836892,0.996863995 L0.30576225,0.996863995 C-0.10192075,0.996863995 -0.10192075,1.4038595 0.30576225,1.4946085 C2.88798374,2.08447699 3.93022224,3.75989599 3.93022224,6.02587098 L3.93022224,27.6805069 C3.93022224,29.9471694 2.88798374,31.6225884 0.30576225,32.2117694 C-0.10192075,32.3025184 -0.10192075,32.7102014 0.30576225,32.7102014 L21.6441517,32.7102014 C21.9163987,32.7102014 22.0525222,32.5733904 22.0972092,32.2117694 L22.0972092,32.2117694 Z M19.2427407,50.3100071 L19.2427407,71.966018 C19.2427407,74.231993 18.2011897,75.9080995 15.6182807,76.4972805 C15.2105977,76.587342 15.2105977,76.9957125 15.6182807,76.9957125 L27.8962077,76.9957125 C28.3038907,76.9957125 28.3038907,76.587342 27.8962077,76.4972805 C25.3139862,75.9080995 24.2717477,74.231993 24.2717477,71.966018 L24.2717477,50.3100071 C24.2717477,48.0454071 25.3139862,46.3693006 27.8962077,45.7801196 C28.3038907,45.6893706 28.3038907,45.2823751 27.8962077,45.2823751 L15.6182807,45.2823751 C15.2105977,45.2823751 15.2105977,45.6893706 15.6182807,45.7801196 C18.2011897,46.3693006 19.2427407,48.0454071 19.2427407,50.3100071 L19.2427407,50.3100071 Z M105.645412,50.3100071 L105.645412,71.966018 C105.645412,74.231993 104.603173,75.9080995 102.020264,76.4972805 C101.612581,76.587342 101.612581,76.9957125 102.020264,76.9957125 L124.673139,76.9957125 C124.944699,76.9957125 125.080822,76.9049635 125.216946,76.4972805 L126.938427,70.7436565 C127.119925,70.19985 126.938427,70.064414 126.756929,70.064414 C126.576118,70.064414 126.39462,70.244537 126.258497,70.516784 C124.537016,73.959746 122.543288,75.047359 117.33347,75.227482 L110.674419,75.4543545 L110.674419,50.3100071 C110.674419,48.0454071 111.715282,46.3693006 114.298191,45.7801196 C114.705874,45.6893706 114.705874,45.2823751 114.298191,45.2823751 L102.020264,45.2823751 C101.612581,45.2823751 101.612581,45.6893706 102.020264,45.7801196 C104.603173,46.3693006 105.645412,48.0454071 105.645412,50.3100071 L105.645412,50.3100071 Z M188.783869,45.7801196 C190.279165,46.3693006 191.774461,47.6377241 193.043572,49.2691436 L193.043572,71.966018 C193.043572,74.231993 192.001334,75.9080995 189.418425,76.4972805 C189.012117,76.587342 189.012117,76.9957125 189.418425,76.9957125 L198.525637,76.9957125 C198.932632,76.9957125 198.932632,76.587342 198.525637,76.4972805 C195.943415,75.9080995 194.901177,74.231993 194.901177,71.966018 L194.901177,51.8066781 L212.977414,76.6327165 C213.158912,76.8589015 213.430472,76.9957125 213.702719,76.9957125 L220.634017,76.9957125 C220.905577,76.9957125 220.905577,76.587342 220.634017,76.4972805 C219.456343,76.134972 218.233294,75.0927335 217.145681,73.8236225 L217.145681,50.3100071 C217.145681,48.0454071 218.187232,46.3693006 220.769453,45.7801196 C221.177824,45.6893706 221.177824,45.2816876 220.769453,45.2816876 L211.664304,45.2816876 C211.255933,45.2816876 211.255933,45.6893706 211.664304,45.7801196 C214.246525,46.3693006 215.288076,48.0454071 215.288076,50.3100071 L215.288076,71.33215 L196.668032,45.6446836 C196.487222,45.4184986 196.214287,45.2816876 195.943415,45.2816876 L188.783869,45.2816876 C188.557684,45.2816876 188.557684,45.6893706 188.783869,45.7801196 L188.783869,45.7801196 Z M224.343039,76.9957125 L233.947995,76.9957125 C234.400365,76.9957125 234.536489,76.587342 233.857246,76.4972805 C231.138901,76.134972 230.594407,74.4574905 231.50121,72.3743885 L232.905757,69.2036735 L246.270609,69.2036735 L247.493658,72.3743885 C248.308337,74.50424 247.810592,75.862725 244.730626,76.4972805 C244.276881,76.587342 244.276881,76.9957125 244.730626,76.9957125 L258.050104,76.9957125 C258.4571,76.9957125 258.4571,76.587342 258.050104,76.4972805 C255.467195,75.9080995 253.654965,74.2773675 252.839599,72.238265 L244.322256,50.4468181 C243.643013,48.7260246 243.50689,47.0492306 244.005322,45.9616176 C244.231507,45.4624981 244.140758,45.2823751 243.643013,45.2823751 L235.578727,45.2823751 C235.080295,45.2823751 234.990234,45.4184986 234.990234,45.5532471 C234.990234,45.6446836 235.033546,45.7347451 235.442604,45.9169306 C236.891838,46.5501111 237.979451,48.0454071 239.067064,50.6730031 L229.508169,72.1928905 C228.602054,74.2773675 226.92526,75.9080995 224.343039,76.4972805 C223.934669,76.587342 223.934669,76.9957125 224.343039,76.9957125 L224.343039,76.9957125 Z M233.494938,67.798439 L239.972491,52.9836651 L245.726803,67.798439 L233.494938,67.798439 Z"/>
</svg>
